<svg width="50" height="50" viewBox="0 0 50 50" fill="none" xmlns="http://www.w3.org/2000/svg">
<path d="M25 33.333L23.9393 34.3937L25 35.4543L26.0607 34.3937L25 33.333ZM26.5 8.33301C26.5 7.50458 25.8284 6.83301 25 6.83301C24.1716 6.83301 23.5 7.50458 23.5 8.33301L26.5 8.33301ZM11.4393 21.8937L23.9393 34.3937L26.0607 32.2723L13.5607 19.7723L11.4393 21.8937ZM26.0607 34.3937L38.5607 21.8937L36.4393 19.7723L23.9393 32.2723L26.0607 34.3937ZM26.5 33.333L26.5 8.33301L23.5 8.33301L23.5 33.333L26.5 33.333Z" fill="black"/>
<path d="M10.4165 43.75L39.5832 43.75" stroke="black" stroke-width="3"/>
</svg>
