<svg width="28" height="26" viewBox="0 0 28 26" fill="none" xmlns="http://www.w3.org/2000/svg">
<g clip-path="url(#clip0_52_1423)">
<path d="M25.9273 0H2.06719C0.924219 0 0 0.837891 0 1.87383V24.1211C0 25.157 0.924219 26 2.06719 26H25.9273C27.0703 26 28 25.157 28 24.1262V1.87383C28 0.837891 27.0703 0 25.9273 0ZM8.30703 22.1559H4.15078V9.74492H8.30703V22.1559ZM6.22891 8.05391C4.89453 8.05391 3.81719 7.05352 3.81719 5.81953C3.81719 4.58555 4.89453 3.58516 6.22891 3.58516C7.55781 3.58516 8.63516 4.58555 8.63516 5.81953C8.63516 7.04844 7.55781 8.05391 6.22891 8.05391ZM23.8602 22.1559H19.7094V16.123C19.7094 14.6859 19.682 12.8324 17.5492 12.8324C15.3891 12.8324 15.0609 14.4016 15.0609 16.0215V22.1559H10.9156V9.74492H14.8969V11.441H14.9516C15.5039 10.466 16.8602 9.43516 18.8781 9.43516C23.0836 9.43516 23.8602 12.0047 23.8602 15.3461V22.1559V22.1559Z" fill="black"/>
</g>
<defs>
<clipPath id="clip0_52_1423">
<rect width="28" height="26" fill="white"/>
</clipPath>
</defs>
</svg>
