<svg width="26" height="21" viewBox="0 0 26 21" fill="none" xmlns="http://www.w3.org/2000/svg">
<path d="M3.69746 20.289H22.6558C24.7754 20.289 26 19.0643 26 16.6386V3.63859C26 1.22464 24.7636 0 22.3025 0H3.3442C1.22464 0 0 1.21286 0 3.63859V16.6386C0 19.0761 1.23641 20.289 3.69746 20.289ZM11.5987 10.7391L2.70833 1.96649C2.96739 1.86051 3.27355 1.80163 3.62681 1.80163H22.3732C22.7382 1.80163 23.0562 1.86051 23.3152 1.97826L14.4484 10.7391C13.942 11.2455 13.4828 11.4692 13.0236 11.4692C12.5525 11.4692 12.0933 11.2337 11.5987 10.7391ZM1.80163 16.6386V3.63859C1.80163 3.54438 1.80163 3.59149 1.80163 3.50906L8.57246 10.1621L1.81341 16.8388C1.80163 16.7799 1.80163 16.7092 1.80163 16.6386ZM24.1984 3.65036V16.6504C24.1984 16.6975 24.1984 16.7563 24.1984 16.8034L17.4746 10.1621L24.1984 3.54438C24.1984 3.65036 24.1984 3.65036 24.1984 3.65036ZM3.62681 18.4873C3.2971 18.4873 3.01449 18.4402 2.76721 18.3342L9.80888 11.375L10.5743 12.1286C11.3986 12.9411 12.1875 13.2826 13.0236 13.2826C13.8478 13.2826 14.6486 12.9411 15.4728 12.1286L16.2382 11.375L23.2681 18.3225C23.0091 18.4402 22.7147 18.4873 22.3732 18.4873H3.62681Z" fill="#212121"/>
</svg>
