<svg width="80" height="80" viewBox="0 0 80 80" fill="none" xmlns="http://www.w3.org/2000/svg">
<path fill-rule="evenodd" clip-rule="evenodd" d="M77.4536 47.215C74.3686 61.9989 68.2277 78.264 51.1847 79.8981C32.0494 81.7328 20.9934 58.3218 30.0259 47.2149C31.6105 45.2665 35.0121 44.811 38.8879 44.292C45.8967 43.3536 54.4563 42.2075 56.6263 31.6492C57.6172 26.828 57.9206 22.6821 58.1731 19.2311C58.7795 10.9454 59.0927 6.66601 67.9238 6.66602C77.9508 6.66602 83.5858 17.8281 77.4536 47.215ZM40.737 50.6111C39.2649 52.6994 37.637 56.7331 38.1935 58.8219C39.3641 63.2154 41.2649 63.902 45.6848 65.4984C46.0621 65.6347 46.4577 65.7776 46.8729 65.93C52.151 67.8679 56.6475 66.2928 57.9101 62.9155C59.1728 59.5382 60.2432 51.594 54.1184 50.2765C53.738 50.1947 53.3626 50.113 52.9924 50.0324C47.4003 48.8157 42.991 47.8563 40.737 50.6111Z" fill="#BF5C3D"/>
<path fill-rule="evenodd" clip-rule="evenodd" d="M2.54643 32.785C5.63142 18.001 11.7723 1.73599 28.8153 0.101882C47.9506 -1.73284 59.0066 21.6782 49.9741 32.7851C48.3895 34.7335 44.9879 35.189 41.1121 35.7079C34.1033 36.6464 25.5437 37.7925 23.3737 48.3508C22.3828 53.172 22.0794 57.3179 21.8269 60.7689C21.2205 69.0546 20.9073 73.334 12.0762 73.334C2.04923 73.334 -3.58576 62.1719 2.54643 32.785ZM36.3135 16.6925C41.617 15.3353 45.6774 16.9861 45.6774 20.8194C45.6774 25.611 44.3239 30.375 39.5453 29.0178C34.7666 27.6606 29.325 19.6007 36.3135 16.6925Z" fill="#EF9A63"/>
</svg>
