<svg width="80" height="81" viewBox="0 0 80 81" fill="none" xmlns="http://www.w3.org/2000/svg">
<path fill-rule="evenodd" clip-rule="evenodd" d="M77.4536 47.673C74.3686 62.457 68.2277 78.722 51.1847 80.3561C32.0494 82.1908 20.9934 58.7798 30.0259 47.6729C31.6105 45.7245 35.0121 45.269 38.8879 44.7501C45.8967 43.8116 54.4563 42.6655 56.6263 32.1072C57.6172 27.286 57.9206 23.1401 58.1731 19.6891C58.7795 11.4034 59.0927 7.12402 67.9238 7.12402C77.9508 7.12402 83.5858 18.2861 77.4536 47.673ZM40.737 51.0691C39.2649 53.1574 37.637 57.1911 38.1935 59.2799C39.3641 63.6734 41.2649 64.36 45.6848 65.9564C46.0621 66.0927 46.4577 66.2356 46.8729 66.3881C52.151 68.3259 56.6475 66.7508 57.9101 63.3735C59.1728 59.9962 60.2432 52.052 54.1184 50.7345C53.738 50.6527 53.3626 50.571 52.9924 50.4904C47.4003 49.2737 42.991 48.3143 40.737 51.0691Z" fill="black"/>
<path fill-rule="evenodd" clip-rule="evenodd" d="M2.54643 33.243C5.63142 18.4591 11.7723 2.194 28.8153 0.559889C47.9506 -1.27483 59.0066 22.1362 49.9741 33.2431C48.3895 35.1915 44.9879 35.647 41.1121 36.166C34.1033 37.1044 25.5437 38.2505 23.3737 48.8088C22.3828 53.63 22.0794 57.7759 21.8269 61.2269C21.2205 69.5126 20.9073 73.792 12.0762 73.792C2.04923 73.792 -3.58576 62.6299 2.54643 33.243ZM36.3135 17.1505C41.617 15.7933 45.6774 17.4441 45.6774 21.2774C45.6774 26.069 44.3239 30.833 39.5453 29.4758C34.7666 28.1186 29.325 20.0587 36.3135 17.1505Z" fill="black"/>
</svg>
