<svg width="27" height="27" viewBox="0 0 27 27" fill="none" xmlns="http://www.w3.org/2000/svg">
<path d="M3.67962 3.09815L5.07067 1.70711C5.46119 1.31658 6.09436 1.31658 6.48488 1.70711L10.8484 6.07067C11.239 6.46119 11.239 7.09436 10.8484 7.48488L9.05919 9.27415C8.82478 9.50856 8.76666 9.86666 8.91492 10.1632C10.629 13.5913 13.4087 16.371 16.8368 18.0851C17.1333 18.2333 17.4914 18.1752 17.7259 17.9408L19.5151 16.1516C19.9056 15.761 20.5388 15.761 20.9293 16.1516L25.2929 20.5151C25.6834 20.9056 25.6834 21.5388 25.2929 21.9293L23.9018 23.3204C21.7905 25.4317 18.4479 25.6693 16.0592 23.8777L11.2952 20.3048C9.55171 18.9971 8.00289 17.4483 6.69524 15.7048L3.12226 10.9408C1.33072 8.55207 1.56827 5.2095 3.67962 3.09815Z" stroke="#33363F" stroke-width="2"/>
</svg>
