<svg width="1389" height="390" viewBox="0 0 1389 390" fill="none" xmlns="http://www.w3.org/2000/svg">
<g filter="url(#filter0_d_533_458)">
<path d="M1091.21 282.434L1086.89 284.959L1091.21 282.434ZM889.523 262.126L894.051 264.247L894.051 264.247L889.523 262.126ZM1331.95 119.361C1334.15 133.922 1347.74 143.939 1362.31 141.734C1376.87 139.529 1386.88 125.938 1384.68 111.376C1382.47 96.8143 1368.88 86.7973 1354.32 89.0021C1339.76 91.207 1329.74 104.799 1331.95 119.361ZM1091.46 376.85L1091.39 371.85L1091.46 376.85ZM-0.0819317 127.999C212.425 131.482 378.936 129.57 511.111 128.15C643.368 126.728 741.024 125.804 816.095 131.229C891.157 136.652 943.019 148.394 983.937 171.906C1024.77 195.367 1055.25 230.867 1086.89 284.959L1095.52 279.909C1063.44 225.071 1031.87 187.917 988.919 163.236C946.056 138.606 892.407 126.716 816.816 121.255C741.235 115.794 643.096 116.731 511.004 118.15C378.832 119.571 212.441 121.481 0.0819317 118.001L-0.0819317 127.999ZM894.051 264.247C902.183 246.887 925.174 211.12 957.811 171.639C990.4 132.216 1032.31 89.4583 1078.09 57.9267C1123.96 26.337 1173.09 6.4458 1220.34 11.6036C1267.27 16.7255 1313.67 46.718 1353.96 117.833L1362.66 112.903C1321.3 39.9044 1272.47 7.23364 1221.43 1.66263C1170.71 -3.87252 1119.14 17.5136 1072.42 49.6909C1025.61 81.9263 983.039 125.426 950.103 165.268C917.215 205.053 893.635 241.561 884.995 260.004L894.051 264.247ZM1086.89 284.959C1100.82 308.771 1108.37 326.231 1111.8 338.969C1115.25 351.768 1114.38 359.19 1112.37 363.455C1110.45 367.517 1107.07 369.603 1103.04 370.713C1098.87 371.865 1094.58 371.809 1091.39 371.85L1091.52 381.849C1094.33 381.813 1100.03 381.918 1105.7 380.354C1111.53 378.748 1117.87 375.242 1121.41 367.72C1124.86 360.401 1125.2 350.249 1121.46 336.368C1117.7 322.426 1109.68 304.101 1095.52 279.909L1086.89 284.959ZM1091.39 371.85C1055.28 372.314 998.539 358.85 954.34 337.79C932.233 327.256 913.771 315.056 902.598 302.175C891.534 289.42 888.171 276.797 894.051 264.247L884.995 260.004C876.846 277.399 882.451 294.209 895.044 308.728C907.529 323.121 927.415 336.037 950.039 346.817C995.301 368.384 1053.56 382.337 1091.52 381.849L1091.39 371.85Z" fill="#EF9A63" fill-opacity="0.3"/>
</g>
<defs>
<filter id="filter0_d_533_458" x="-4.08194" y="0.790703" width="1393.07" height="389.071" filterUnits="userSpaceOnUse" color-interpolation-filters="sRGB">
<feFlood flood-opacity="0" result="BackgroundImageFix"/>
<feColorMatrix in="SourceAlpha" type="matrix" values="0 0 0 0 0 0 0 0 0 0 0 0 0 0 0 0 0 0 127 0" result="hardAlpha"/>
<feOffset dy="4"/>
<feGaussianBlur stdDeviation="2"/>
<feComposite in2="hardAlpha" operator="out"/>
<feColorMatrix type="matrix" values="0 0 0 0 0 0 0 0 0 0 0 0 0 0 0 0 0 0 0.25 0"/>
<feBlend mode="normal" in2="BackgroundImageFix" result="effect1_dropShadow_533_458"/>
<feBlend mode="normal" in="SourceGraphic" in2="effect1_dropShadow_533_458" result="shape"/>
</filter>
</defs>
</svg>
